<svg width="128" height="128" viewBox="0 0 128 128" fill="none" xmlns="http://www.w3.org/2000/svg">
  <!-- Radial background suggesting a galaxy -->
  <defs>
    <radialGradient id="galaxyGradient" cx="64" cy="64" r="64" gradientUnits="userSpaceOnUse">
      <stop offset="0%" stop-color="#6366F1" stop-opacity="0.2"/>
      <stop offset="40%" stop-color="#3B82F6" stop-opacity="0.1"/>
      <stop offset="70%" stop-color="#2563EB" stop-opacity="0.05"/>
      <stop offset="100%" stop-color="#1E40AF" stop-opacity="0"/>
    </radialGradient>
    
    <!-- Spiral arm pattern -->
    <pattern id="starDust" x="0" y="0" width="128" height="128" patternUnits="userSpaceOnUse">
      <circle cx="20" cy="40" r="0.5" fill="white" opacity="0.6"/>
      <circle cx="30" cy="55" r="0.4" fill="white" opacity="0.7"/>
      <circle cx="50" cy="20" r="0.6" fill="white" opacity="0.8"/>
      <circle cx="70" cy="30" r="0.3" fill="white" opacity="0.5"/>
      <circle cx="80" cy="60" r="0.5" fill="white" opacity="0.7"/>
      <circle cx="100" cy="45" r="0.4" fill="white" opacity="0.6"/>
      <circle cx="110" cy="75" r="0.3" fill="white" opacity="0.5"/>
      <circle cx="40" cy="90" r="0.5" fill="white" opacity="0.8"/>
      <circle cx="65" cy="100" r="0.4" fill="white" opacity="0.7"/>
      <circle cx="90" cy="85" r="0.3" fill="white" opacity="0.6"/>
    </pattern>
  </defs>
  
  <!-- Galaxy backdrop -->
  <circle cx="64" cy="64" r="60" fill="url(#galaxyGradient)" />
  <circle cx="64" cy="64" r="60" fill="url(#starDust)" />
  
  <!-- Spiral arms -->
  <path d="M64 64 C70 50, 90 44, 110 50 Q120 56, 124 70" stroke="white" stroke-width="1" opacity="0.5" fill="none" />
  <path d="M64 64 C78 70, 84 90, 78 110 Q72 120, 58 124" stroke="white" stroke-width="1" opacity="0.5" fill="none" />
  <path d="M64 64 C58 78, 38 84, 18 78 Q8 72, 4 58" stroke="white" stroke-width="1" opacity="0.5" fill="none" />
  <path d="M64 64 C50 58, 44 38, 50 18 Q56 8, 70 4" stroke="white" stroke-width="1" opacity="0.5" fill="none" />
  
  <!-- Central celestial body with glow -->
  <circle cx="64" cy="64" r="15" fill="white">
    <animate attributeName="opacity" values="0.8;1;0.8" dur="3s" repeatCount="indefinite" />
  </circle>
  <circle cx="64" cy="64" r="20" fill="white" opacity="0.2">
    <animate attributeName="r" values="20;22;20" dur="4s" repeatCount="indefinite" />
  </circle>
  <circle cx="64" cy="64" r="25" fill="white" opacity="0.1">
    <animate attributeName="r" values="25;28;25" dur="5s" repeatCount="indefinite" />
  </circle>
  
  <!-- Orbiting celestial body -->
  <circle cx="94" cy="64" r="6" fill="white" opacity="0.9">
    <animateTransform 
      attributeName="transform" 
      type="rotate" 
      from="0 64 64" 
      to="360 64 64" 
      dur="15s" 
      repeatCount="indefinite"
    />
  </circle>
  
  <!-- Smaller celestial body -->
  <circle cx="64" cy="34" r="4" fill="white" opacity="0.8">
    <animateTransform 
      attributeName="transform" 
      type="rotate" 
      from="0 64 64" 
      to="360 64 64" 
      dur="10s" 
      repeatCount="indefinite"
    />
  </circle>
  
  <!-- Star accents -->
  <path d="M110 30L112 35L117 37L112 39L110 44L108 39L103 37L108 35L110 30Z" fill="white" opacity="0.7" />
  <path d="M30 100L32 105L37 107L32 109L30 114L28 109L23 107L28 105L30 100Z" fill="white" opacity="0.7" />
  
  <!-- Shooting star -->
  <line x1="15" y1="40" x2="35" y2="60" stroke="white" stroke-width="1" opacity="0.8">
    <animate attributeName="opacity" values="0;0.8;0" dur="4s" repeatCount="indefinite" />
  </line>
</svg> 